<svg width="11.000000" height="9.385269" viewBox="0 0 11 9.38527" fill="none" xmlns="http://www.w3.org/2000/svg" xmlns:xlink="http://www.w3.org/1999/xlink">
	<desc>
			Created with Pixso.
	</desc>
	<defs/>
	<path id="Vector" d="M2.75 0C1.99 0 1.32 0.31 0.81 0.81C0.31 1.3 0 1.98 0 2.75C0 3.5 0.31 4.18 0.81 4.69L5.5 9.38L10.18 4.69C10.68 4.19 11 3.52 11 2.75C11 1.99 10.68 1.32 10.18 0.81C9.69 0.31 9.02 0 8.25 0C7.49 0 6.82 0.31 6.31 0.81C5.81 1.3 5.5 1.98 5.5 2.75C5.5 1.99 5.18 1.32 4.68 0.81C4.19 0.31 3.52 0 2.75 0Z" fill="#F6ED1E" fill-opacity="1.000000" fill-rule="nonzero"/>
</svg>
